  0
SECTION
  2
HEADER
  9
$ACADVER
  1
AC1009
  0
ENDSEC
  0
SECTION
  2
TABLES
  0
TABLE
  2
LAYER
  70
1
  0
LAYER
  2
Layer_0
  70
0
  62
7
  6
CONTINUOUS
  0
ENDTAB
  0
ENDSEC
  0
SECTION
  2
ENTITIES
  0
POLYLINE
  5
90
  8
Layer_0
  62
7
  70
1
  66
1
  10
0
  20
0
  30
0
  0
VERTEX
  5
90
  8
Layer_0
  10
287
  20
10
  0
VERTEX
  5
91
  8
Layer_0
  10
10
  20
10
  0
VERTEX
  5
92
  8
Layer_0
  10
10
  20
187
  0
VERTEX
  5
93
  8
Layer_0
  10
287
  20
187
  0
SEQEND
  0
POLYLINE
  5
95
  8
Layer_0
  62
7
  70
1
  66
1
  10
0
  20
0
  30
0
  0
VERTEX
  5
95
  8
Layer_0
  10
276
  20
114.17418
  0
VERTEX
  5
96
  8
Layer_0
  10
214
  20
114.17418
  0
VERTEX
  5
97
  8
Layer_0
  10
214
  20
176.17418
  0
VERTEX
  5
98
  8
Layer_0
  10
276
  20
176.17418
  0
SEQEND
  0
CIRCLE
  5
9a
  8
Layer_0
  62
7
  10
179.75735
  20
145.24265
  30
0
  40
6
  0
CIRCLE
  5
9a
  8
Layer_0
  62
7
  10
242
  20
81
  30
0
  40
12
  0
CIRCLE
  5
9a
  8
Layer_0
  62
7
  10
28.125
  20
146.125
  30
0
  40
3.125
  0
CIRCLE
  5
9a
  8
Layer_0
  62
7
  10
143.25
  20
153.37132
  30
0
  40
3.25
  0
CIRCLE
  5
9a
  8
Layer_0
  62
7
  10
143.25
  20
136.25
  30
0
  40
3.25
  0
POLYLINE
  5
9a
  8
Layer_0
  62
7
  70
1
  66
1
  10
0
  20
0
  30
0
  0
VERTEX
  5
9a
  8
Layer_0
  10
120
  20
128
  0
VERTEX
  5
9b
  8
Layer_0
  10
96
  20
128
  0
VERTEX
  5
9c
  8
Layer_0
  10
96
  20
162
  0
VERTEX
  5
9d
  8
Layer_0
  10
120
  20
162
  0
SEQEND
  0
POLYLINE
  5
9f
  8
Layer_0
  62
7
  70
1
  66
1
  10
0
  20
0
  30
0
  0
VERTEX
  5
9f
  8
Layer_0
  10
71
  20
128
  0
VERTEX
  5
a0
  8
Layer_0
  10
47
  20
128
  0
VERTEX
  5
a1
  8
Layer_0
  10
47
  20
162
  0
VERTEX
  5
a2
  8
Layer_0
  10
71
  20
162
  0
SEQEND
  0
CIRCLE
  5
a4
  8
Layer_0
  62
7
  10
82.25
  20
54.750004
  30
0
  40
5.7500029
  0
CIRCLE
  5
a4
  8
Layer_0
  62
7
  10
82.25
  20
80.25
  30
0
  40
3.25
  0
CIRCLE
  5
a4
  8
Layer_0
  62
7
  10
82.25
  20
30.25
  30
0
  40
3.25
  0
CIRCLE
  5
a4
  8
Layer_0
  62
7
  10
36.25
  20
54.75
  30
0
  40
5.7499986
  0
CIRCLE
  5
a4
  8
Layer_0
  62
7
  10
36.25
  20
80.25
  30
0
  40
3.25
  0
CIRCLE
  5
a4
  8
Layer_0
  62
7
  10
36.25
  20
30.492638
  30
0
  40
3.25
  0
CIRCLE
  5
a4
  8
Layer_0
  62
7
  10
138.22183
  20
55.221825
  30
0
  40
11
  0
CIRCLE
  5
a4
  8
Layer_0
  62
7
  10
168.25
  20
55.25
  30
0
  40
3.25
  0
CIRCLE
  5
a4
  8
Layer_0
  62
7
  10
162.25
  20
78.25
  30
0
  40
3.25
  0
CIRCLE
  5
a4
  8
Layer_0
  62
7
  10
162.25
  20
32.25
  30
0
  40
3.25
  0
CIRCLE
  5
a4
  8
Layer_0
  62
7
  10
213.46202
  20
51.371319
  30
0
  40
3.25
  0
CIRCLE
  5
a4
  8
Layer_0
  62
7
  10
232.79535
  20
51.371315
  30
0
  40
3.25
  0
CIRCLE
  5
a4
  8
Layer_0
  62
7
  10
252.12868
  20
51.371319
  30
0
  40
3.25
  0
CIRCLE
  5
a4
  8
Layer_0
  62
7
  10
271.46204
  20
51.371315
  30
0
  40
3.25
  0
CIRCLE
  5
a4
  8
Layer_0
  62
7
  10
138.37132
  20
80.128677
  30
0
  40
3.25
  0
CIRCLE
  5
a4
  8
Layer_0
  62
7
  10
138.37132
  20
30.25
  30
0
  40
3.25
  0
POLYLINE
  5
a4
  8
Layer_0
  62
7
  70
1
  66
1
  10
0
  20
0
  30
0
  0
VERTEX
  5
a4
  8
Layer_0
  10
227
  20
36
  0
VERTEX
  5
a5
  8
Layer_0
  10
258
  20
36
  0
VERTEX
  5
a6
  8
Layer_0
  10
258
  20
15.999999
  0
VERTEX
  5
a7
  8
Layer_0
  10
227
  20
16
  0
SEQEND
  0
ENDSEC
  0
EOF
