<?xml version="1.0" encoding="UTF-8" standalone="no"?>
<svg xmlns="http://www.w3.org/2000/svg" xmlns:xlink="http://www.w3.org/1999/xlink" width="277.000mm" height="177.000mm" viewBox="10.000000 -187.000000 277.000000 177.000000">
    <rect transform="matrix(1,0,0,-1,148.5,-98.5)" style="stroke:#000000;stroke-width:0.050000mm;fill:none" x="-138.5" y="-88.5" width="277" height="177"/>
    <rect transform="matrix(1,0,0,-1,245,-145.174179)" style="stroke:#000000;stroke-width:0.050000mm;fill:none" x="-31" y="-31" width="62" height="62"/>
    <circle transform="matrix(1,0,0,-1,179.757355,-145.242645)" style="stroke:#000000;stroke-width:0.050000mm;fill:none" r="6" cx="0" cy="0"/>
    <circle transform="matrix(1,0,0,-1,242,-81)" style="stroke:#000000;stroke-width:0.050000mm;fill:none" r="12" cx="0" cy="0"/>
    <circle transform="matrix(1,0,0,-1,28.125,-146.125)" style="stroke:#000000;stroke-width:0.050000mm;fill:none" r="3.125" cx="0" cy="0"/>
    <circle transform="matrix(1,0,0,-1,143.25,-153.371323)" style="stroke:#000000;stroke-width:0.050000mm;fill:none" r="3.25" cx="0" cy="0"/>
    <circle transform="matrix(1,0,0,-1,143.25,-136.25)" style="stroke:#000000;stroke-width:0.050000mm;fill:none" r="3.25" cx="0" cy="0"/>
    <rect transform="matrix(1,0,0,-1,108,-145)" style="stroke:#000000;stroke-width:0.050000mm;fill:none" x="-12" y="-17" width="24" height="34"/>
    <rect transform="matrix(1,0,0,-1,59,-145)" style="stroke:#000000;stroke-width:0.050000mm;fill:none" x="-12" y="-17" width="24" height="34"/>
    <circle transform="matrix(1,0,0,-1,82.25,-54.750004)" style="stroke:#000000;stroke-width:0.050000mm;fill:none" r="5.750003" cx="0" cy="0"/>
    <circle transform="matrix(1,0,0,-1,82.25,-80.25)" style="stroke:#000000;stroke-width:0.050000mm;fill:none" r="3.25" cx="0" cy="0"/>
    <circle transform="matrix(1,0,0,-1,82.25,-30.25)" style="stroke:#000000;stroke-width:0.050000mm;fill:none" r="3.25" cx="0" cy="0"/>
    <circle transform="matrix(1,0,0,-1,36.25,-54.75)" style="stroke:#000000;stroke-width:0.050000mm;fill:none" r="5.749999" cx="0" cy="0"/>
    <circle transform="matrix(1,0,0,-1,36.25,-80.25)" style="stroke:#000000;stroke-width:0.050000mm;fill:none" r="3.25" cx="0" cy="0"/>
    <circle transform="matrix(1,0,0,-1,36.25,-30.492638)" style="stroke:#000000;stroke-width:0.050000mm;fill:none" r="3.25" cx="0" cy="0"/>
    <circle transform="matrix(1,0,0,-1,138.221832,-55.221825)" style="stroke:#000000;stroke-width:0.050000mm;fill:none" r="11" cx="0" cy="0"/>
    <circle transform="matrix(1,0,0,-1,168.25,-55.25)" style="stroke:#000000;stroke-width:0.050000mm;fill:none" r="3.25" cx="0" cy="0"/>
    <circle transform="matrix(1,0,0,-1,162.25,-78.25)" style="stroke:#000000;stroke-width:0.050000mm;fill:none" r="3.25" cx="0" cy="0"/>
    <circle transform="matrix(1,0,0,-1,162.25,-32.25)" style="stroke:#000000;stroke-width:0.050000mm;fill:none" r="3.25" cx="0" cy="0"/>
    <circle transform="matrix(1,0,0,-1,213.462021,-51.371319)" style="stroke:#000000;stroke-width:0.050000mm;fill:none" r="3.25" cx="0" cy="0"/>
    <circle transform="matrix(1,0,0,-1,232.795349,-51.371315)" style="stroke:#000000;stroke-width:0.050000mm;fill:none" r="3.25" cx="0" cy="0"/>
    <circle transform="matrix(1,0,0,-1,252.128677,-51.371319)" style="stroke:#000000;stroke-width:0.050000mm;fill:none" r="3.25" cx="0" cy="0"/>
    <circle transform="matrix(1,0,0,-1,271.462036,-51.371315)" style="stroke:#000000;stroke-width:0.050000mm;fill:none" r="3.25" cx="0" cy="0"/>
    <circle transform="matrix(1,0,0,-1,138.371323,-80.128677)" style="stroke:#000000;stroke-width:0.050000mm;fill:none" r="3.25" cx="0" cy="0"/>
    <circle transform="matrix(1,0,0,-1,138.371323,-30.25)" style="stroke:#000000;stroke-width:0.050000mm;fill:none" r="3.25" cx="0" cy="0"/>
    <rect transform="matrix(-1,-0,-0,1,242.5,-26)" style="stroke:#000000;stroke-width:0.050000mm;fill:none" x="-15.5" y="-10" width="31" height="20"/>
</svg>
